<?xml version="1.0" encoding="utf-8"?>
<!-- Generator: Adobe Illustrator 27.0.1, SVG Export Plug-In . SVG Version: 6.00 Build 0)  -->
<svg version="1.1" id="Layer_1" xmlns="http://www.w3.org/2000/svg" xmlns:xlink="http://www.w3.org/1999/xlink" x="0px" y="0px"
	 viewBox="0 0 325.8 86" style="enable-background:new 0 0 325.8 86;" xml:space="preserve">
<style type="text/css">
	.st0{clip-path:url(#SVGID_00000060746215619740908810000011203117583914215041_);}
	.st1{fill:#F7C30F;}
</style>
<g>
	<defs>
		<rect id="SVGID_1_" width="325.8" height="86"/>
	</defs>
	<clipPath id="SVGID_00000038409898045521686970000000551255746502534316_">
		<use xlink:href="#SVGID_1_"  style="overflow:visible;"/>
	</clipPath>
	<g id="Group_19" transform="translate(0 0)" style="clip-path:url(#SVGID_00000038409898045521686970000000551255746502534316_);">
		<path id="Path_8" d="M97.9,5.2h6.4c3.7,0,5.5,2,5.5,6v16.6c0,4-1.9,6-5.8,6h-6.1V5.2z M102,9.2v20.5h1.8c1.2,0,1.8-0.6,1.8-1.9
			V11.2c0-1.3-0.6-2-1.8-2L102,9.2z"/>
		<rect id="Rectangle_6" x="113.3" y="5.2" width="4.1" height="28.6"/>
		<path id="Path_9" d="M121,10.7c0-4,2-6,5.9-6c4,0,5.9,2,5.9,6v3.8h-4.1v-3.8c0-1.3-0.6-1.9-1.8-1.9h0c-1.2,0-1.8,0.6-1.8,1.9v2.6
			c0,1.3,1.3,2.8,3.9,4.7c2.6,1.8,3.9,4,3.9,6.6v3.6c0,4-2,6-5.9,6c-4,0-5.9-2-5.9-6v-3.8h4.1v3.8c0,1.3,0.6,1.9,1.8,1.9
			c1.2,0,1.8-0.6,1.8-1.9v-3.3c0-1.4-1.3-3-3.9-4.8c-2.6-1.8-3.9-4.1-3.9-6.7L121,10.7z"/>
		<path id="Path_10" d="M147,5.2v4.1h-3.9v24.5h-4.1V9.2h-3.9V5.2H147z"/>
		<path id="Path_11" d="M160.4,23.6l1.3,10.1h-4.2l-0.8-6.1h-4.2l-0.8,6.1h-4.2l1.3-10.1l2.9-18.5h5.7L160.4,23.6z M156.2,23.6
			l-1.6-11.9l-1.6,11.9H156.2z"/>
		<path id="Path_12" d="M164.2,5.2h4.1l3.9,16.6V5.2h3.8v28.6h-4.1l-3.8-16.1v16.1h-4V5.2z"/>
		<path id="Path_13" d="M191.4,28.2c0,4-2,6-5.9,6c-3.9,0-5.9-2-5.9-6V10.7c0-4,2-6,5.9-6c4,0,5.9,2,5.9,6v3.8h-4.1v-3.8
			c0-1.3-0.6-1.9-1.8-1.9h0c-1.2,0-1.8,0.6-1.8,1.9v17.5c0,1.3,0.6,1.9,1.8,1.9c1.2,0,1.8-0.6,1.8-1.9v-3.8h4.1V28.2z"/>
		<path id="Path_14" d="M194.8,5.2h10.7v4.1h-6.6v8.2h5.7v4.1h-5.7v8.2h6.6v4.1h-10.7V5.2z"/>
		<path id="Path_15" d="M215.9,33.8V5.2h4.1v24.5h6.6v4.1H215.9z"/>
		<path id="Path_16" d="M229.1,5.2h10.7v4.1h-6.6v8.2h5.7v4.1h-5.7v8.2h6.6v4.1h-10.7V5.2z"/>
		<path id="Path_17" d="M254.4,23.6l1.3,10.1h-4.2l-0.8-6.1h-4.2l-0.8,6.1h-4.2l1.3-10.1l2.9-18.5h5.7L254.4,23.6z M250.2,23.6
			l-1.6-11.9l-1.6,11.9H250.2z"/>
		<path id="Path_18" d="M258.2,5.2h6c3.7,0,5.5,2,5.5,6v4.3c0,2.5-1.1,4.2-3.3,5l4.6,13.3h-4.5l-3.7-12.6l-0.5,0.1v12.5h-4.1V5.2z
			 M262.3,9.2v8.2h0.9c0.4,0,0.8,0,1.2-0.1c0.7-0.3,1.2-1,1.1-1.8v-4.3c0-1.3-0.6-2-1.8-2L262.3,9.2z"/>
		<path id="Path_19" d="M273.4,5.2h4.1l3.9,16.6V5.2h3.8v28.6h-4.1l-3.8-16.1v16.1h-4L273.4,5.2z"/>
		<rect id="Rectangle_7" x="289.1" y="5.2" width="4.1" height="28.6"/>
		<path id="Path_20" d="M297.1,5.2h4.1l3.9,16.6V5.2h3.8v28.6h-4.1l-3.8-16.1v16.1h-4L297.1,5.2z"/>
		<path id="Path_21" d="M324.3,28.2c0,4-2,6-5.9,6c-3.9,0-5.9-2-5.9-6V10.7c0-4,2-6,5.9-6c4,0,5.9,2,5.9,6v3.8h-4.1v-3.8
			c0-1.3-0.6-1.9-1.8-1.9h0c-1.2,0-1.8,0.6-1.8,1.9v17.5c0,1.3,0.6,1.9,1.8,1.9c1.2,0,1.8-0.6,1.8-1.9v-6.7h-2.1v-4.1h6.2V28.2z"/>
		<path id="Path_22" d="M109.6,60.1l1.4,10.3h-4.2l-0.8-6.2h-4.3l-0.8,6.2h-4.2l1.4-10.3l3-18.8h5.8L109.6,60.1z M105.3,60.1
			L103.7,48l-1.6,12.1H105.3z"/>
		<path id="Path_23" d="M115.9,41.3h6.5c3.7,0,5.6,2,5.6,6.1v16.8c0,4.1-2,6.1-5.9,6.1h-6.2V41.3z M120.1,45.5v20.8h1.8
			c1.2,0,1.8-0.7,1.8-2V47.5c0-1.3-0.6-2-1.8-2H120.1z"/>
		<path id="Path_24" d="M143.1,61.3l4.9-19.9h4.2v29.1h-4V54.1l-3.6,16.3h-2.8L138,54.1v16.3h-4.1V41.3h4.2L143.1,61.3z"/>
		<rect id="Rectangle_8" x="158.5" y="41.3" width="4.2" height="29.1"/>
		<path id="Path_25" d="M169,41.3h4.2l4,16.9V41.3h3.9v29.1h-4.2l-3.8-16.3v16.3h-4V41.3z"/>
		<rect id="Rectangle_9" x="187.4" y="41.3" width="4.2" height="29.1"/>
		<path id="Path_26" d="M197.7,47c0-4.1,2-6.1,6-6.1c4,0,6,2,6,6.1v3.9h-4.2V47c0-1.3-0.6-2-1.8-2h0c-1.2,0-1.8,0.7-1.8,2v2.6
			c0,1.3,1.3,2.9,3.9,4.8c2.6,1.9,3.9,4.1,3.9,6.7v3.7c0,4.1-2,6.1-6,6.1c-4,0-6-2-6-6.1v-3.9h4.2v3.9c0,1.3,0.6,2,1.8,2
			c1.2,0,1.8-0.7,1.8-2v-3.3c0-1.4-1.3-3-3.9-4.9c-2.6-1.9-3.9-4.1-3.9-6.8L197.7,47z"/>
		<path id="Path_27" d="M226.6,41.3v4.1h-3.9v24.9h-4.2V45.5h-3.9v-4.1L226.6,41.3z"/>
		<path id="Path_28" d="M231.7,41.3h6.1c3.7,0,5.6,2,5.6,6.1v4.4c0,2.6-1.1,4.2-3.3,5.1l4.7,13.5h-4.6l-3.8-12.8l-0.5,0.1v12.7h-4.2
			V41.3z M235.9,45.5v8.3h1c0.4,0,0.8,0,1.2-0.1c0.8-0.3,1.2-1,1.1-1.9v-4.4c0-1.3-0.6-2-1.8-2H235.9z"/>
		<path id="Path_29" d="M261.3,60.1l1.4,10.3h-4.2l-0.8-6.2h-4.3l-0.8,6.2h-4.2l1.4-10.3l3-18.8h5.8L261.3,60.1z M257.1,60.1
			L255.4,48l-1.6,12.1H257.1z"/>
		<path id="Path_30" d="M278,41.3v4.1h-3.9v24.9h-4.2V45.5H266v-4.1L278,41.3z"/>
		<rect id="Rectangle_10" x="283.2" y="41.3" width="4.2" height="29.1"/>
		<path id="Path_31" d="M305.5,64.8c0,4.1-2,6.1-6,6.1c-4,0-6-2-6-6.1V47c0-4.1,2-6.1,6-6.1c4,0,6,2,6,6.1V64.8z M301.3,47
			c0-1.3-0.6-2-1.8-2h0c-1.2,0-1.8,0.7-1.8,2v17.8c0,1.3,0.6,2,1.8,2c1.2,0,1.8-0.7,1.8-2L301.3,47z"/>
		<path id="Path_32" d="M311.5,41.3h4.2l4,16.9V41.4h3.9v29.1h-4.2l-3.8-16.3v16.3h-4L311.5,41.3z"/>
		<path id="Path_33" class="st1" d="M83.1,27.1V0.5c-6.7,9.5-21.7,10.7-29.3,0.2c-0.5-0.8-1.5-1-2.3-0.5c-0.5,0.4-0.8,1-0.7,1.6
			l0.1,0.5c2.3,15-14,26-27,18.1C23.1,20,22,20.2,21.4,21c-0.4,0.6-0.4,1.3,0,1.9c8,13-2.8,29.5-17.9,27.2h0c-0.9-0.2-1.8,0.4-2,1.3
			c-0.1,0.7,0.1,1.4,0.7,1.8l2.5,1.8c11.1,8,8.2,25.1-4.6,29.1h29.3C30.6,54.4,53.5,30.1,83.1,27.1"/>
		<path id="Path_34" class="st1" d="M83.1,33.4C57,36.4,37,57.9,35.9,84.1h47.2V33.4z"/>
		<path id="Path_35" d="M157.2,83.4h1v0.7c0,0.3,0,0.6,0.4,0.6c0.4,0,0.4-0.3,0.4-0.7v-5.5h1.1v5.6c0,0.8-0.4,1.3-1.5,1.3
			c-0.9,0-1.4-0.2-1.4-1.2V83.4z"/>
		<path id="Path_36" d="M162.3,78.6h2.9v0.8h-1.8v2.2h1.7v0.8h-1.7v2.3h1.8v0.8h-2.9V78.6z"/>
		<path id="Path_37" d="M167.1,78.6h1.1v3.1h0l1.7-3.1h1.1l-1.8,3.2l1.9,3.7h-1.2l-1.7-3.4h0v3.4h-1.1L167.1,78.6z"/>
		<path id="Path_38" d="M172.7,78.6h1.1l0.9,2.9h0l1.1-2.9h0.9l-1.5,4.1v2.8h-1.1v-2.8L172.7,78.6z"/>
		<path id="Path_39" d="M178.7,78.6h1.1v6.1h1.8v0.8h-2.8V78.6z"/>
		<path id="Path_40" d="M183.6,78.6h1.1v6.1h1.8v0.8h-2.8V78.6z"/>
		<rect id="Rectangle_11" x="191.8" y="78.6" width="1.1" height="6.9"/>
		<path id="Path_41" d="M195,83.5h1.1V84c0,0.5,0.2,0.7,0.6,0.7c0.6,0,0.7-0.3,0.7-0.8c0-0.6,0-0.8-1.1-1.8
			c-0.7-0.5-1.2-1.2-1.2-2.1c0-1.1,0.6-1.6,1.7-1.6c0.4,0,0.9,0.1,1.2,0.4c0.2,0.2,0.3,0.6,0.3,0.9v0.7h-1v-0.5
			c0-0.4-0.2-0.6-0.6-0.6c-0.4,0-0.6,0.2-0.6,0.8c0,0.5,0.1,0.8,1.1,1.7c1,1,1.2,1.3,1.2,2.1c0,1.1-0.5,1.7-1.7,1.7
			c-1,0-1.6-0.4-1.6-1.2L195,83.5z"/>
		<path id="Path_42" d="M200.5,78.6h1.1v6.1h1.8v0.8h-2.8L200.5,78.6z"/>
		<path id="Path_43" d="M206.7,78.6h1.2l1.6,6.9h-1.1l-0.3-1.8h-1.7l-0.3,1.8H205L206.7,78.6z M206.6,82.9h1.3l-0.7-3.3h0
			L206.6,82.9z"/>
		<path id="Path_44" d="M211.5,78.6h1.5l1.3,5.7h0v-5.7h1v6.9h-1.5l-1.3-5.9h0v5.9h-0.9V78.6z"/>
		<path id="Path_45" d="M217.5,78.6h1.7c1.7,0,1.9,0.5,1.9,2.5v2.1c0,1.8-0.3,2.3-2,2.3h-1.5V78.6z M218.6,84.7h0.5
			c0.8,0,0.9-0.4,0.9-1.6v-2.4c0-1-0.1-1.4-1-1.4h-0.4L218.6,84.7z"/>
		<path id="Path_46" d="M223.3,84.3h1.1l-0.6,1.7h-0.8L223.3,84.3z"/>
		<path id="Path_47" d="M232,80.4V80c0-0.5-0.3-0.8-0.7-0.8c-0.5,0-0.7,0.4-0.7,1.1v3.5c0,0.6,0.3,0.9,0.7,0.9c0.2,0,0.5,0,0.7-0.1
			v-2h-0.7v-0.8h1.8v3.5c-0.6,0.1-1.2,0.2-1.7,0.2c-1.3,0-1.8-0.6-1.8-1.7v-3.5c0-1.3,0.4-1.8,1.8-1.8c1.1,0,1.7,0.4,1.7,1.3v0.6
			L232,80.4z"/>
		<path id="Path_48" d="M235.3,78.6h2.9v0.8h-1.8v2.2h1.7v0.8h-1.7v2.3h1.8v0.8h-2.9V78.6z"/>
		<path id="Path_49" d="M240.1,80.3c-0.1-0.9,0.5-1.7,1.3-1.8c0.2,0,0.3,0,0.5,0c1.4,0,1.8,0.6,1.8,1.7v3.5c0.1,0.9-0.5,1.7-1.3,1.8
			c-0.2,0-0.3,0-0.5,0c-1.4,0-1.8-0.6-1.8-1.7V80.3z M241.1,83.9c0,0.6,0.3,0.9,0.7,0.9s0.7-0.3,0.7-0.9v-3.6c0-0.7-0.3-1-0.7-1
			c-0.5,0-0.7,0.3-0.7,1V83.9z"/>
		<path id="Path_50" d="M245.9,78.6h1.6c1.5,0,1.7,0.4,1.7,1.9c0,0.9-0.1,1.3-1,1.6v0c0.5,0,0.9,0.3,1,0.8c0,0.1,0,0.1,0,0.2v1.5
			c0,0.3,0,0.6,0.1,0.9h-1c-0.1-0.2-0.1-0.4-0.1-0.6v-1.6c0-0.6-0.1-0.8-0.8-0.8H247v3h-1.1L245.9,78.6z M247,81.7h0.3
			c0.8,0,1-0.1,1-1.2c0-1-0.1-1.1-0.7-1.1H247L247,81.7z"/>
		<path id="Path_51" d="M254,80.4V80c0-0.5-0.3-0.8-0.7-0.8c-0.5,0-0.7,0.4-0.7,1.1v3.5c0,0.6,0.3,0.9,0.7,0.9c0.2,0,0.5,0,0.7-0.1
			v-2h-0.7v-0.8h1.8v3.5c-0.6,0.1-1.2,0.2-1.7,0.2c-1.3,0-1.8-0.6-1.8-1.7v-3.5c0-1.3,0.4-1.8,1.8-1.8c1.1,0,1.7,0.4,1.7,1.3v0.6
			L254,80.4z"/>
		<rect id="Rectangle_12" x="257.3" y="78.6" width="1.1" height="6.9"/>
		<path id="Path_52" d="M262,78.6h1.2l1.6,6.9h-1.1l-0.3-1.8h-1.7l-0.3,1.8h-1.1L262,78.6z M261.9,82.9h1.3l-0.7-3.3h0L261.9,82.9z"
			/>
		<path id="Path_53" d="M150.2,83.2H96.7c-0.5,0-1-0.4-1-1s0.4-1,1-1h53.4c0.5,0,1,0.4,1,1S150.7,83.2,150.2,83.2"/>
		<path id="Path_54" d="M324.9,83.2h-53.4c-0.5,0-1-0.4-1-1s0.4-1,1-1h53.4c0.5,0,1,0.4,1,1S325.4,83.2,324.9,83.2"/>
	</g>
</g>
</svg>
