<?xml version="1.0" encoding="utf-8"?>
<!-- Generator: Adobe Illustrator 27.0.1, SVG Export Plug-In . SVG Version: 6.00 Build 0)  -->
<svg version="1.1" id="Layer_1" xmlns="http://www.w3.org/2000/svg" xmlns:xlink="http://www.w3.org/1999/xlink" x="0px" y="0px"
	 viewBox="0 0 154.6 58.7" style="enable-background:new 0 0 154.6 58.7;" xml:space="preserve">
<style type="text/css">
	.st0{fill:#FFFFFF;}
	.st1{fill:#F7C413;}
</style>
<g id="DLA-logo" transform="translate(-0.1 -0.038)">
	<path id="Path_1" class="st0" d="M73.4,8.9v43.4h5.2c3.4,0,5.1-1.6,5.1-4.8V13.7c0-3.2-1.7-4.8-5.1-4.8L73.4,8.9L73.4,8.9z
		 M65.9,2.4h13.7c7.8,0,11.7,3.8,11.7,11.4v33.7c0,7.5-4.1,11.3-12.3,11.3h-13L65.9,2.4L65.9,2.4z"/>
	<path id="Path_2" class="st0" d="M99,58.7V2.4h7.5v49.9h15.2v6.5L99,58.7z"/>
	<path id="Path_3" class="st0" d="M144.2,39.9L139.4,8l-4.7,31.8H144.2z M151.7,39.1l3,19.6h-7.6l-1.8-12.3h-11.5l-1.9,12.3h-7.6
		l2.9-19.5l6.6-36.8h11.4L151.7,39.1z"/>
	<g id="Group_2" transform="translate(0.1 0.038)">
		<path id="Path_4" class="st1" d="M57.8,18.8V0.3c-4,5.7-11.9,7-17.6,3c-1.1-0.8-2-1.7-2.8-2.8c-0.4-0.5-1.1-0.7-1.6-0.3
			c-0.4,0.3-0.6,0.7-0.5,1.1l0,0.4c1,6.8-3.6,13.2-10.4,14.2c-2.9,0.4-5.9-0.1-8.4-1.7c-0.6-0.4-1.3-0.2-1.7,0.3
			c-0.3,0.4-0.3,0.9,0,1.3c3.6,5.8,1.9,13.5-4,17.2c-2.5,1.6-5.5,2.2-8.5,1.7l0,0c-0.7-0.1-1.3,0.3-1.4,1c-0.1,0.5,0.1,1,0.5,1.2
			l1.7,1.2c5.2,3.7,6.3,10.9,2.6,16.1c-1.4,2-3.5,3.5-5.8,4.2h20.4C21.3,37.8,37.2,20.9,57.8,18.8"/>
		<path id="Path_5" class="st1" d="M57.8,23.2c-18.1,2.1-32.1,17-32.9,35.3h32.9L57.8,23.2L57.8,23.2z"/>
	</g>
</g>
</svg>
